General
Complete name                    : Salt 2010 R5.mkv
Format                           : Matroska
File size                        : 803 MiB
Duration                         : 1h 35mn
Overall bit rate                 : 1 170 Kbps
Writing application              : HandBrake 0.9.4

Video

Format                           : AVC
Duration                         : 1h 35mn
Bit rate                         : 1 036 Kbps
Width                            : 720 pixels
Height                           : 364 pixels
Display aspect ratio             : 2.35:1
Stream size                      : 699 MiB (87%)
Writing library                  : x264 core 79
Audio

Format                           : MPEG Audio
Codec ID/Hint                    : MP3
Duration                         : 1h 35mn
Bit rate                         : 128 Kbps
Channel(s)                       : 2 channels
Sampling rate                    : 48.0 KHz
Stream size                      : 87.8 MiB (11%)
Language                         : English

Text        
Language                         : Swedish


        *************THX to robin8 & Toya***************

               -------------Swesub.nu-------------


Menu
00:00:00.000                     : Chapter 1
00:07:02.638                     : Chapter 2


